<?xml version="1.0" standalone="no"?>
<!DOCTYPE svg PUBLIC "-//W3C//DTD SVG 20010904//EN"
 "http://www.w3.org/TR/2001/REC-SVG-20010904/DTD/svg10.dtd">
<svg version="1.0" xmlns="http://www.w3.org/2000/svg"
 width="512.000000pt" height="512.000000pt" viewBox="0 0 512.000000 512.000000"
 preserveAspectRatio="xMidYMid meet">

<g transform="translate(0.000000,512.000000) scale(0.100000,-0.100000)"
fill="#000000" stroke="none">
<path d="M3429 4745 c-195 -37 -361 -126 -505 -269 -133 -134 -216 -281 -261
-462 -26 -108 -24 -335 5 -441 12 -45 22 -85 22 -88 0 -3 -360 -5 -800 -5
l-801 0 -24 -25 -25 -24 0 -296 0 -295 -255 0 -256 0 -24 -25 c-33 -32 -33
-78 0 -110 l24 -25 256 0 255 0 0 -120 0 -120 -495 0 -496 0 -24 -25 c-33 -32
-33 -78 0 -110 l24 -25 496 0 495 0 0 -120 0 -120 -255 0 -256 0 -24 -25 c-33
-32 -33 -78 0 -110 l24 -25 256 0 255 0 0 -120 0 -120 -495 0 -496 0 -24 -25
c-33 -32 -33 -78 0 -110 l24 -25 496 0 495 0 0 -334 c0 -314 1 -335 19 -357
18 -23 26 -24 158 -27 l139 -3 18 -69 c60 -234 299 -375 531 -315 161 42 297
183 323 335 l8 45 681 3 c643 2 682 1 687 -15 2 -10 8 -34 11 -53 4 -19 21
-62 39 -94 87 -166 275 -259 457 -228 187 32 319 164 363 364 l6 27 233 3 234
3 49 30 c27 17 63 52 81 78 49 73 51 114 13 317 -80 430 -86 455 -119 504 -46
66 -106 98 -195 104 l-72 4 -164 381 c-145 334 -170 386 -210 428 -29 31 -59
51 -85 58 -25 7 -166 11 -382 11 l-343 0 0 78 0 79 118 6 c187 10 360 67 509
168 81 54 224 208 274 295 101 173 133 293 133 494 0 119 -4 160 -23 230 -50
186 -120 308 -256 445 -135 135 -277 216 -456 260 -92 23 -296 28 -390 10z
m361 -168 c209 -57 368 -171 480 -344 205 -312 160 -731 -106 -997 -117 -117
-279 -200 -441 -225 -95 -15 -161 -14 -258 3 -438 77 -734 498 -651 928 64
331 303 573 636 644 80 17 262 12 340 -9z m-985 -1314 c44 -68 180 -206 245
-250 65 -44 185 -104 250 -124 l55 -17 3 -976 2 -976 -569 0 -568 0 -17 44
c-28 72 -91 151 -157 195 -173 116 -377 106 -538 -27 -49 -40 -116 -137 -126
-182 l-7 -30 -89 0 -89 0 0 280 0 280 455 0 456 0 24 25 c16 15 25 36 25 55 0
19 -9 40 -25 55 l-24 25 -456 0 -455 0 0 120 0 120 455 0 456 0 24 25 c16 15
25 36 25 55 0 19 -9 40 -25 55 l-24 25 -456 0 -455 0 0 120 0 120 455 0 456 0
24 25 c16 15 25 36 25 55 0 19 -9 40 -25 55 l-24 25 -456 0 -455 0 0 120 0
120 455 0 456 0 24 25 c33 32 33 78 0 110 l-24 25 -456 0 -455 0 0 240 0 240
784 0 783 0 38 -57z m1407 -755 c13 -10 175 -370 304 -675 l14 -33 -505 0
-505 0 0 360 0 360 338 0 c255 0 342 -3 354 -12z m613 -890 c21 -19 29 -41 44
-118 l18 -95 -121 -3 c-67 -1 -131 -7 -143 -13 -28 -15 -46 -59 -37 -93 12
-49 35 -56 190 -56 l142 0 21 -112 c27 -143 27 -144 -8 -179 l-29 -29 -219 0
-218 1 -30 66 c-52 116 -159 204 -290 239 -196 53 -417 -53 -500 -239 l-30
-66 -47 -1 -48 0 0 360 0 360 639 0 640 0 26 -22z m-2899 -571 c56 -28 93 -67
126 -131 30 -58 30 -175 0 -232 -33 -64 -70 -103 -125 -130 -137 -70 -295 -21
-375 114 -24 41 -27 57 -27 132 0 75 3 91 27 132 36 60 101 115 158 133 65 21
154 14 216 -18z m2204 17 c76 -23 153 -100 176 -179 39 -137 -18 -270 -146
-336 -66 -35 -176 -33 -245 3 -258 135 -169 521 121 527 22 1 64 -6 94 -15z"/>
<path d="M3305 4335 c-14 -13 -25 -34 -25 -47 0 -22 242 -601 262 -625 12 -15
514 -183 546 -183 32 0 72 43 72 77 0 58 -17 67 -265 150 l-235 78 -115 270
c-64 148 -125 278 -136 288 -30 25 -75 22 -104 -8z"/>
<path d="M1737 990 c-46 -14 -94 -57 -116 -103 -75 -156 68 -324 236 -276 90
25 154 125 140 216 -9 55 -56 123 -101 146 -43 23 -117 31 -159 17z m93 -165
c26 -32 -13 -81 -47 -59 -35 22 -23 74 17 74 10 0 23 -7 30 -15z"/>
<path d="M3952 975 c-147 -75 -144 -278 6 -352 217 -107 394 203 195 341 -61
42 -131 46 -201 11z m122 -157 c8 -13 8 -23 0 -35 -16 -26 -51 -28 -64 -4 -25
47 36 83 64 39z"/>
</g>
</svg>
