<?xml version="1.0" standalone="no"?>
<!DOCTYPE svg PUBLIC "-//W3C//DTD SVG 20010904//EN"
 "http://www.w3.org/TR/2001/REC-SVG-20010904/DTD/svg10.dtd">
<svg version="1.0" xmlns="http://www.w3.org/2000/svg"
 width="533.000000pt" height="614.000000pt" viewBox="0 0 533.000000 614.000000"
 preserveAspectRatio="xMidYMid meet">

<g transform="translate(0.000000,614.000000) scale(0.100000,-0.100000)"
fill="#ffffff" stroke="none">
<path d="M3225 6016 c-195 -50 -356 -139 -491 -271 -268 -263 -369 -631 -274
-1000 28 -107 116 -284 184 -370 69 -87 185 -188 281 -246 l72 -44 5 -227 c5
-244 8 -258 57 -258 30 0 89 57 264 256 l106 120 105 12 c261 31 445 115 624
286 108 103 165 180 218 291 83 174 117 367 96 548 -17 140 -44 232 -108 364
-49 103 -63 121 -170 232 -64 67 -147 141 -184 166 -127 84 -284 139 -449 155
-151 15 -235 11 -336 -14z m450 -135 c257 -63 464 -235 585 -485 71 -148 84
-203 84 -381 0 -165 -10 -219 -65 -351 -81 -194 -237 -362 -424 -456 -90 -46
-214 -79 -335 -90 -63 -5 -125 -14 -137 -18 -12 -5 -72 -65 -135 -134 l-113
-125 -6 157 c-3 86 -7 158 -7 158 -1 1 -53 34 -114 75 -209 135 -340 295 -410
499 -32 93 -33 99 -33 270 0 202 9 243 85 405 116 247 315 407 603 486 93 25
300 20 422 -10z"/>
<path d="M3333 5634 c-63 -23 -125 -84 -167 -163 l-36 -69 -72 -7 c-159 -16
-267 -103 -304 -244 -16 -66 -10 -134 20 -205 23 -55 98 -129 164 -160 l60
-29 7 -177 c4 -98 11 -184 16 -191 7 -11 80 -15 401 -17 216 -2 407 -1 424 3
45 8 52 34 60 227 l6 167 29 6 c16 4 56 26 88 50 152 112 168 327 36 473 -51
57 -123 89 -217 97 l-77 7 -29 62 c-34 72 -85 126 -151 158 -59 29 -195 35
-258 12z m207 -132 c53 -26 89 -86 101 -167 10 -74 36 -112 68 -100 9 4 40 13
69 20 141 37 265 -63 250 -200 -10 -86 -71 -143 -188 -177 -55 -16 -70 -42
-70 -125 l0 -63 -320 0 -320 0 0 68 c0 88 -13 106 -92 128 -145 41 -209 183
-132 295 48 70 136 100 219 75 61 -19 99 -20 113 -3 6 7 15 41 21 75 5 34 17
77 26 96 45 95 153 128 255 78z m230 -972 l0 -40 -320 0 -320 0 0 40 0 40 320
0 320 0 0 -40z"/>
<path d="M1981 3970 c-39 -9 -77 -35 -105 -74 -16 -21 -22 -46 -25 -107 l-3
-79 -57 -16 c-230 -63 -399 -161 -548 -317 -125 -131 -208 -278 -262 -458
l-28 -94 -66 -7 c-114 -11 -173 -55 -198 -148 -25 -95 37 -195 141 -229 55
-17 55 -18 73 -77 31 -97 40 -116 70 -151 l29 -33 1033 0 1033 0 31 35 c17 20
37 60 46 93 28 98 31 105 46 113 8 4 40 19 72 34 69 32 105 76 113 138 10 68
-3 113 -42 157 -39 42 -80 60 -163 69 l-54 6 -38 113 c-44 130 -107 254 -175
344 -146 192 -368 342 -594 402 l-85 23 -5 69 c-8 107 -57 174 -140 193 -51
12 -53 12 -99 1z m91 -137 c39 -35 11 -103 -43 -103 -53 0 -79 74 -36 103 29
21 56 21 79 0z m93 -252 c89 -11 204 -47 310 -97 145 -68 328 -249 408 -402
40 -77 100 -242 91 -251 -11 -12 -1862 -7 -1874 5 -8 8 -5 28 10 75 90 267
280 483 526 595 168 76 324 98 529 75z m1069 -910 c12 -10 16 -26 14 -50 -3
-36 -3 -36 -63 -44 -33 -4 -573 -6 -1201 -5 -1216 3 -1174 1 -1174 50 0 10 7
30 16 44 l17 25 1187 -3 c1005 -3 1190 -5 1204 -17z m-200 -252 c4 -3 1 -29
-6 -58 l-11 -51 -983 0 -983 0 -11 43 c-6 23 -14 50 -16 60 -5 17 39 18 999
15 553 -2 1008 -6 1011 -9z"/>
<path d="M661 1719 c-212 -36 -466 -244 -522 -431 -47 -154 1 -257 128 -277
l52 -8 -6 92 c-7 109 5 170 54 274 40 83 96 144 177 190 56 33 76 38 76 20 0
-12 -179 -512 -369 -1032 -72 -197 -131 -362 -131 -367 0 -12 130 -13 148 -1
11 7 128 310 283 735 l54 148 3 -113 c2 -63 -2 -231 -7 -374 -6 -143 -11 -293
-11 -332 l0 -73 113 0 c61 0 122 3 135 6 30 8 32 13 227 479 162 386 194 455
181 390 -14 -75 -106 -766 -109 -815 l-2 -55 143 -3 c78 -1 142 -1 142 0 0 2
38 271 84 598 118 827 129 911 118 922 -5 5 -71 7 -147 6 l-139 -3 -42 -100
c-23 -55 -122 -293 -220 -530 -178 -426 -179 -430 -182 -376 -2 29 6 265 18
524 18 408 19 473 6 485 -29 29 -147 39 -255 21z"/>
<path d="M2240 1720 c-103 -18 -200 -82 -271 -180 -68 -94 -83 -139 -83 -255
-1 -109 10 -141 73 -215 l29 -34 -71 -40 c-177 -97 -291 -291 -292 -496 0
-161 56 -267 175 -328 200 -101 474 -38 665 153 100 100 160 205 116 205 -4 0
-39 -27 -76 -60 -166 -146 -390 -185 -474 -83 -128 156 9 502 246 622 l56 28
-47 22 c-123 60 -179 251 -114 391 42 93 97 145 158 150 50 4 68 0 94 -25 23
-21 26 -32 26 -89 0 -74 -10 -106 -45 -148 -31 -37 -31 -40 4 -61 41 -24 87
-21 137 8 l44 26 -8 -33 c-4 -18 -7 -64 -7 -103 0 -81 21 -126 74 -162 30 -20
116 -41 126 -31 3 2 0 33 -6 67 -16 86 1 209 39 293 45 99 117 170 229 225
l95 47 134 4 c121 4 137 2 178 -18 57 -27 83 -63 97 -133 33 -161 -80 -369
-222 -411 -62 -19 -80 -13 -73 22 58 305 82 437 78 441 -6 6 -198 -17 -247
-30 -24 -6 -41 -18 -47 -32 -16 -38 -270 -1229 -270 -1267 0 -19 6 -20 145
-20 80 0 145 2 145 4 0 27 143 687 161 742 17 55 86 54 146 -2 l36 -34 -6 -92
c-3 -51 -22 -167 -42 -258 -20 -91 -39 -200 -42 -242 l-6 -77 37 -37 36 -36
123 4 c67 2 127 7 134 11 9 5 5 17 -12 43 -48 70 -46 102 17 374 67 288 57
377 -53 454 -22 15 -21 15 50 93 94 102 125 165 129 264 3 60 0 86 -16 122
-40 91 -137 171 -245 202 -48 14 -91 16 -225 13 -158 -4 -171 -6 -244 -35
-121 -48 -223 -117 -326 -220 -73 -73 -91 -87 -85 -66 4 16 7 53 7 84 -2 102
-65 189 -161 223 -51 18 -167 26 -223 16z"/>
<path d="M4310 1720 c-133 -17 -256 -83 -351 -189 -100 -110 -144 -229 -137
-368 3 -74 4 -76 45 -113 39 -34 98 -60 137 -60 15 0 16 7 9 58 -21 152 18
315 98 407 40 45 148 127 159 120 10 -6 -12 -125 -151 -804 -66 -321 -117
-587 -114 -590 4 -3 66 -7 140 -9 l133 -4 11 38 c6 22 49 215 96 429 47 215
95 435 107 490 l22 99 12 -40 c6 -22 46 -249 88 -505 42 -255 81 -474 86 -486
9 -22 15 -23 113 -23 67 0 109 4 120 13 13 9 56 196 172 752 85 407 157 750
160 761 3 14 -1 24 -11 28 -20 8 -198 8 -244 0 l-36 -6 -88 -436 c-48 -241
-99 -486 -113 -547 l-26 -110 -38 265 c-60 410 -126 811 -136 821 -12 12 -189
19 -263 9z"/>
</g>
</svg>
