<?xml version="1.0" standalone="no"?>
<!DOCTYPE svg PUBLIC "-//W3C//DTD SVG 20010904//EN"
 "http://www.w3.org/TR/2001/REC-SVG-20010904/DTD/svg10.dtd">
<svg version="1.0" xmlns="http://www.w3.org/2000/svg"
 width="1080.000000pt" height="1080.000000pt" viewBox="0 0 1080.000000 1080.000000"
 preserveAspectRatio="xMidYMid meet">

<g transform="translate(0.000000,1080.000000) scale(0.100000,-0.100000)"
fill="#ffffff" stroke="none">
<path d="M5985 8444 c-11 -2 -51 -12 -90 -20 -82 -19 -202 -76 -289 -138 -230
-164 -361 -466 -326 -751 32 -265 176 -487 403 -621 l52 -30 3 -187 c2 -175 4
-187 23 -197 11 -6 29 -8 39 -5 11 3 78 73 149 155 l130 148 73 7 c156 14 280
58 403 139 78 52 201 178 244 249 160 269 159 592 -1 865 -43 74 -197 227
-270 271 -69 40 -153 74 -234 96 -58 16 -269 29 -309 19z m282 -120 c250 -55
462 -265 530 -524 26 -100 23 -274 -6 -370 -95 -310 -351 -510 -671 -524 -81
-3 -85 -5 -114 -37 -17 -19 -61 -68 -98 -109 l-67 -75 -1 117 c0 64 -3 123 -6
132 -3 9 -42 37 -86 63 -237 141 -368 363 -368 622 0 254 126 485 336 619 66
42 202 91 279 102 73 9 188 3 272 -16z"/>
<path d="M6008 8125 c-64 -24 -106 -64 -139 -130 l-30 -62 -56 -1 c-39 0 -71
-8 -111 -29 -197 -98 -185 -372 21 -463 l47 -21 0 -144 c0 -132 2 -145 19
-155 13 -6 140 -10 345 -10 324 0 325 0 340 22 13 18 16 52 16 159 l0 137 28
7 c15 3 48 21 73 40 126 92 134 285 17 391 -53 47 -97 65 -168 66 l-58 1 -17
44 c-37 97 -117 154 -223 159 -42 3 -81 -1 -104 -11z m171 -112 c46 -34 71
-81 71 -133 0 -34 5 -52 20 -65 19 -17 22 -17 66 0 114 44 224 -24 224 -140 0
-74 -59 -139 -135 -151 -58 -8 -75 -32 -75 -101 l0 -53 -255 0 -255 0 0 59 c0
69 -12 85 -67 94 -123 21 -182 158 -106 248 50 59 116 74 192 43 59 -23 77
-10 84 66 9 103 74 165 166 156 24 -2 55 -13 70 -23z m171 -773 l0 -30 -255 0
-255 0 0 30 0 30 255 0 255 0 0 -30z"/>
<path d="M4892 6784 c-54 -28 -77 -70 -77 -139 l0 -61 -80 -22 c-295 -81 -523
-304 -611 -598 l-28 -94 -51 0 c-65 0 -114 -26 -142 -76 -54 -94 1 -209 109
-229 36 -7 37 -8 54 -78 12 -50 26 -81 45 -99 l27 -28 825 0 824 0 26 24 c14
13 30 41 36 62 5 22 14 55 18 74 8 30 15 36 55 48 48 13 94 51 109 90 5 13 9
43 9 66 0 84 -69 146 -163 146 -29 0 -49 5 -51 13 -2 6 -16 51 -31 99 -88 282
-331 512 -619 584 l-67 17 6 41 c7 49 -24 118 -67 149 -36 27 -114 32 -156 11z
m102 -100 c22 -22 20 -60 -5 -78 -28 -19 -61 -7 -74 29 -8 23 -6 30 14 46 28
23 45 24 65 3z m206 -233 c52 -18 117 -45 145 -61 123 -71 242 -196 305 -320
26 -51 70 -172 70 -192 0 -4 -340 -8 -755 -8 -727 0 -755 1 -755 18 0 30 36
127 77 205 54 105 200 249 308 304 148 75 227 93 390 89 104 -3 133 -8 215
-35z m724 -697 c19 -18 21 -55 4 -72 -9 -9 -237 -12 -964 -12 -853 0 -954 2
-968 16 -20 19 -20 34 0 62 l15 22 949 0 c849 0 950 -2 964 -16z m-154 -200
c0 -3 -5 -25 -11 -50 l-11 -44 -786 2 -786 3 -12 48 -12 47 809 0 c445 0 809
-3 809 -6z"/>
<path d="M3835 4985 c-97 -27 -195 -84 -271 -160 -83 -81 -122 -153 -131 -238
-10 -96 33 -154 121 -164 l44 -5 -11 51 c-20 104 22 245 98 330 35 39 139 101
150 90 3 -4 -85 -253 -196 -555 -111 -302 -204 -557 -206 -566 -5 -16 2 -18
55 -18 36 0 63 5 69 13 6 6 68 170 139 364 l129 352 3 -62 c1 -34 -4 -195 -12
-357 -7 -162 -11 -298 -9 -302 7 -14 210 -9 220 5 6 6 75 167 153 357 79 190
146 349 150 353 8 9 11 32 -45 -362 -25 -173 -45 -325 -45 -338 0 -23 1 -23
115 -23 l114 0 6 33 c14 80 165 1153 165 1174 0 23 -2 23 -116 23 l-115 0 -19
-42 c-10 -24 -89 -214 -175 -423 -87 -209 -159 -382 -161 -384 -2 -2 -6 -2 -7
0 -2 2 4 180 14 394 10 215 18 404 18 422 1 29 -3 33 -36 42 -51 14 -147 12
-208 -4z"/>
<path d="M5100 4987 c-64 -18 -111 -49 -169 -112 -62 -69 -91 -142 -91 -231 0
-74 15 -116 59 -166 l31 -35 -65 -32 c-153 -76 -259 -291 -227 -462 24 -127
104 -207 230 -229 195 -33 430 83 526 260 24 44 25 51 11 56 -11 5 -30 -9 -61
-41 -60 -62 -155 -106 -243 -113 -92 -6 -131 11 -161 73 -67 138 42 380 209
464 l53 28 -31 12 c-70 30 -121 116 -121 207 0 160 132 286 224 213 22 -17 26
-28 26 -69 0 -57 -13 -96 -43 -128 l-22 -24 24 -19 c34 -28 83 -24 122 9 28
23 32 24 25 7 -4 -11 -10 -47 -13 -80 -7 -98 39 -160 126 -172 l43 -6 -8 34
c-15 59 -8 170 16 232 41 109 116 181 238 228 44 17 79 22 157 23 88 1 104 -2
138 -22 53 -33 71 -73 71 -152 0 -113 -69 -229 -159 -271 -46 -22 -85 -24 -85
-6 0 6 16 92 36 190 19 99 34 180 32 181 -2 2 -54 -4 -116 -12 -98 -13 -115
-18 -123 -36 -8 -20 -219 -1008 -219 -1027 0 -6 48 -8 118 -7 l117 3 63 305
c34 167 68 308 75 312 28 18 78 8 108 -21 26 -26 29 -36 29 -92 0 -37 -15
-122 -37 -213 -20 -83 -37 -177 -37 -208 -1 -50 3 -61 27 -85 25 -25 34 -28
100 -28 39 0 89 4 109 8 l37 8 -25 36 c-33 49 -31 101 11 268 46 184 53 252
31 310 -11 27 -30 54 -49 67 -18 12 -34 23 -35 24 -2 1 23 29 55 61 93 91 127
185 103 284 -17 71 -91 147 -175 180 -52 20 -78 23 -190 23 -115 0 -138 -3
-203 -26 -130 -47 -259 -142 -335 -248 -14 -19 -17 -20 -12 -5 34 112 -2 208
-99 257 -50 26 -162 33 -226 15z"/>
<path d="M6733 4985 c-134 -37 -244 -128 -304 -250 -42 -85 -53 -199 -24 -254
18 -35 81 -70 127 -71 25 0 26 2 17 32 -25 90 0 232 57 315 34 50 138 132 151
119 4 -3 -44 -250 -106 -548 -62 -299 -113 -550 -114 -558 -2 -12 17 -15 107
-18 60 -1 113 1 117 5 4 4 46 190 94 413 47 223 89 413 93 423 5 12 34 -144
75 -404 38 -232 70 -426 73 -431 3 -4 45 -8 93 -8 96 0 104 4 114 55 3 17 60
286 126 600 67 313 121 576 121 583 0 10 -27 12 -117 10 l-117 -3 -87 -433
c-76 -379 -99 -482 -99 -432 0 42 -124 847 -132 855 -15 16 -206 16 -265 0z"/>
</g>
</svg>
